<svg width="512" height="512" xmlns="http://www.w3.org/2000/svg">

 <g>
  <title>background</title>
  <rect fill="none" id="canvas_background" height="402" width="582" y="-1" x="-1"/>
 </g>
 <g>
  <title>Layer 1</title>
  <g id="svg_1">
   <g id="svg_2">
    <path stroke="#000" fill="#fff" id="svg_3" d="m414.007,148.75c5.522,0 10,-4.477 10,-10l0,-108.75c0,-16.542 -13.458,-30 -30,-30l-364,0c-16.542,0 -30,13.458 -30,30l0,452c0,16.542 13.458,30 30,30l364,0c16.542,0 30,-13.458 30,-30l0,-73.672c0,-5.523 -4.478,-10 -10,-10c-5.522,0 -10,4.477 -10,10l0,73.672c0,5.514 -4.486,10 -10,10l-364,0c-5.514,0 -10,-4.486 -10,-10l0,-452c0,-5.514 4.486,-10 10,-10l364,0c5.514,0 10,4.486 10,10l0,108.75c0,5.523 4.478,10 10,10z"/>
   </g>
  </g>
  <g id="svg_4">
   <g id="svg_5">
    <path stroke="#000" fill="#fff" id="svg_6" d="m212.007,54c-50.729,0 -92,41.271 -92,92c0,26.317 11.11,50.085 28.882,66.869c0.333,0.356 0.687,0.693 1.074,1c16.371,14.979 38.158,24.13 62.043,24.13c23.885,0 45.672,-9.152 62.043,-24.13c0.387,-0.307 0.741,-0.645 1.074,-1c17.774,-16.784 28.884,-40.552 28.884,-66.869c0,-50.729 -41.271,-92 -92,-92zm0,164c-16.329,0 -31.399,-5.472 -43.491,-14.668c8.789,-15.585 25.19,-25.332 43.491,-25.332c18.301,0 34.702,9.747 43.491,25.332c-12.093,9.196 -27.162,14.668 -43.491,14.668zm-16,-76l0,-6.5c0,-8.822 7.178,-16 16,-16s16,7.178 16,16l0,6.5c0,8.822 -7.178,16 -16,16s-16,-7.178 -16,-16zm73.94,46.683c-7.375,-10.938 -17.596,-19.445 -29.463,-24.697c4.71,-6.087 7.523,-13.712 7.523,-21.986l0,-6.5c0,-19.851 -16.149,-36 -36,-36s-36,16.149 -36,36l0,6.5c0,8.274 2.813,15.899 7.523,21.986c-11.867,5.252 -22.088,13.759 -29.463,24.697c-8.829,-11.953 -14.06,-26.716 -14.06,-42.683c0,-39.701 32.299,-72 72,-72s72,32.299 72,72c0,15.967 -5.231,30.73 -14.06,42.683z"/>
   </g>
  </g>
  <g id="svg_7">
   <g id="svg_8">
    <path stroke="#000" fill="#fff" id="svg_9" d="m266.007,438l-54,0c-5.522,0 -10,4.477 -10,10s4.478,10 10,10l54,0c5.522,0 10,-4.477 10,-10s-4.478,-10 -10,-10z"/>
   </g>
  </g>
  <g id="svg_10">
   <g id="svg_11">
    <path stroke="#000" fill="#fff" id="svg_12" d="m266.007,382l-142,0c-5.522,0 -10,4.477 -10,10s4.478,10 10,10l142,0c5.522,0 10,-4.477 10,-10s-4.478,-10 -10,-10z"/>
   </g>
  </g>
  <g id="svg_13">
   <g id="svg_14">
    <path stroke="#000" fill="#fff" id="svg_15" d="m266.007,326l-142,0c-5.522,0 -10,4.477 -10,10s4.478,10 10,10l142,0c5.522,0 10,-4.477 10,-10s-4.478,-10 -10,-10z"/>
   </g>
  </g>
  <g id="svg_16">
   <g id="svg_17">
    <path stroke="#000" fill="#fff" id="svg_18" d="m88.366,272.93c-1.859,-1.86 -4.439,-2.93 -7.079,-2.93c-2.631,0 -5.211,1.07 -7.07,2.93c-1.86,1.86 -2.93,4.44 -2.93,7.07s1.069,5.21 2.93,7.07c1.87,1.86 4.439,2.93 7.07,2.93c2.64,0 5.21,-1.07 7.079,-2.93c1.86,-1.86 2.931,-4.44 2.931,-7.07s-1.07,-5.21 -2.931,-7.07z"/>
   </g>
  </g>
  <g id="svg_19">
   <g id="svg_20">
    <path stroke="#000" fill="#fff" id="svg_21" d="m88.366,328.93c-1.869,-1.86 -4.439,-2.93 -7.079,-2.93c-2.631,0 -5.2,1.07 -7.07,2.93c-1.86,1.86 -2.93,4.44 -2.93,7.07s1.069,5.21 2.93,7.07c1.87,1.86 4.439,2.93 7.07,2.93c2.64,0 5.21,-1.07 7.079,-2.93c1.86,-1.86 2.931,-4.44 2.931,-7.07s-1.07,-5.21 -2.931,-7.07z"/>
   </g>
  </g>
  <g id="svg_22">
   <g id="svg_23">
    <path stroke="#000" fill="#fff" id="svg_24" d="m88.366,384.93c-1.869,-1.86 -4.439,-2.93 -7.079,-2.93c-2.631,0 -5.2,1.07 -7.07,2.93c-1.86,1.86 -2.93,4.44 -2.93,7.07s1.069,5.21 2.93,7.07c1.859,1.86 4.439,2.93 7.07,2.93c2.64,0 5.22,-1.07 7.079,-2.93c1.86,-1.86 2.931,-4.44 2.931,-7.07s-1.07,-5.21 -2.931,-7.07z"/>
   </g>
  </g>
  <g id="svg_25">
   <g id="svg_26">
    <path stroke="#000" fill="#fff" id="svg_27" d="m266.007,270l-142,0c-5.522,0 -10,4.477 -10,10s4.478,10 10,10l142,0c5.522,0 10,-4.477 10,-10s-4.478,-10 -10,-10z"/>
   </g>
  </g>
  <g id="svg_28">
   <g id="svg_29">
    <path stroke="#000" fill="#fff" id="svg_30" d="m491.002,130.32c-9.715,-5.609 -21.033,-7.099 -31.871,-4.196c-10.836,2.904 -19.894,9.854 -25.502,19.569l-125.842,217.963c-0.689,1.195 -1.125,2.52 -1.278,3.891l-8.858,79.344c-0.44,3.948 1.498,7.783 4.938,9.77c1.553,0.896 3.278,1.34 4.999,1.34c2.092,0 4.176,-0.655 5.931,-1.948l64.284,-47.344c1.111,-0.818 2.041,-1.857 2.73,-3.052l125.841,-217.963c11.58,-20.056 4.684,-45.794 -15.372,-57.374zm-170.939,296.074l4.626,-41.432l28.942,16.71l-33.568,24.722zm48.15,-39.398l-38.105,-22l100.985,-174.91l38.105,22l-100.985,174.91zm120.841,-209.303l-9.857,17.073l-38.105,-22l9.857,-17.073c2.938,-5.089 7.682,-8.729 13.358,-10.25c5.678,-1.522 11.606,-0.74 16.694,2.198c5.089,2.938 8.729,7.682 10.25,13.358c1.521,5.676 0.741,11.605 -2.197,16.694z"/>
   </g>
  </g>
  <g id="svg_31"/>
  <g id="svg_32"/>
  <g id="svg_33"/>
  <g id="svg_34"/>
  <g id="svg_35"/>
  <g id="svg_36"/>
  <g id="svg_37"/>
  <g id="svg_38"/>
  <g id="svg_39"/>
  <g id="svg_40"/>
  <g id="svg_41"/>
  <g id="svg_42"/>
  <g id="svg_43"/>
  <g id="svg_44"/>
  <g id="svg_45"/>
 </g>
</svg>