<?xml version="1.0" encoding="iso-8859-1"?>
<!-- Generator: Adobe Illustrator 19.0.0, SVG Export Plug-In . SVG Version: 6.00 Build 0)  -->
<svg version="1.1" id="Capa_1" xmlns="http://www.w3.org/2000/svg" xmlns:xlink="http://www.w3.org/1999/xlink" x="0px" y="0px"
	 viewBox="0 0 447.997 447.997" style="enable-background:new 0 0 447.997 447.997;" xml:space="preserve">
<g>
	<g>
		<path d="M300.704,63.999H256.28c-5.926-6.583-13.538-11.62-22.284-14.136c-7.367-2.118-13.037-7.788-15.156-15.155
			C213.076,14.663,194.602,0,172.704,0c-21.898,0-40.37,14.663-46.134,34.706c-2.122,7.376-7.806,13.039-15.181,15.164
			c-8.738,2.518-16.341,7.55-22.262,14.129H44.705c-17.673,0-32,14.326-32,32v287.999c0,17.673,14.327,32,32,32h172.03
			c-7.738-9.63-14.096-20.389-18.814-32l-153.218,0.001v-288h32v32h191.793v-32h32.206v80h32v-80
			C332.704,78.326,318.377,63.999,300.704,63.999z M172.909,63.998c-8.837,0-16-7.164-16-16c0-8.837,7.163-16,16-16
			c8.837,0,16,7.163,16,16C188.909,56.834,181.746,63.998,172.909,63.998z"/>
	</g>
</g>
<g>
	<g>
		<rect x="76.708" y="208.002" width="48" height="104"/>
	</g>
</g>
<g>
	<g>
		<path d="M220.704,159.998v91.393c13.067-14.778,29.429-26.535,48-34.044v-57.349H220.704z"/>
	</g>
</g>
<g>
	<g>
		<path d="M148.704,191.998v120h42.13c1.359-7.131,3.376-14.015,5.87-20.678v-99.322H148.704z"/>
	</g>
</g>
<g>
	<g>
		<rect x="76.708" y="328.01" width="48" height="16"/>
	</g>
</g>
<g>
	<g>
		<path d="M188.903,327.999h-40.199v16h40.199c-0.166-2.659-0.406-5.3-0.406-8S188.737,330.658,188.903,327.999z"/>
	</g>
</g>
<g>
	<g>
		<path d="M418.328,256.808l5.65,5.651l11.314-11.314l-33.93-33.93l-11.314,11.314l5.655,5.654l-12.214,12.214
			c-14.64-10.976-32.032-18.399-50.975-21.12v-17.279h7.983v-16h-47.983v16h8v17.279c-52.955,7.59-93.99,52.11-95.929,106.678
			c-2.185,61.499,48.51,115.013,110.041,116.026c62.72,1.034,113.888-49.5,113.888-111.983c-0.017-25.152-8.4-48.288-22.4-66.977
			L418.328,256.808z M316.497,415.999c-44.111,0-80-35.889-80-80c0-44.112,35.889-80,80-80c44.112,0,80,35.888,80,80
			C396.497,380.11,360.609,415.999,316.497,415.999z"/>
	</g>
</g>
<g>
	<g>
		<circle cx="316.5" cy="280.002" r="8"/>
	</g>
</g>
<g>
	<g>
		<circle cx="316.5" cy="392.01" r="8"/>
	</g>
</g>
<g>
	<g>
		<circle cx="260.5" cy="336.01" r="8"/>
	</g>
</g>
<g>
	<g>
		<circle cx="372.5" cy="336.01" r="8"/>
	</g>
</g>
<g>
	<g>
		<circle cx="276.9" cy="296.402" r="8"/>
	</g>
</g>
<g>
	<g>
		<circle cx="356.1" cy="375.61" r="8"/>
	</g>
</g>
<g>
	<g>
		<circle cx="276.9" cy="375.61" r="8"/>
	</g>
</g>
<g>
	<g>
		<path d="M356.913,291.199l-49.2,29.023c-1.344,0.769-2.607,1.712-3.76,2.864c-7.023,7.023-7.023,18.432,0,25.456
			c7.04,7.04,18.433,7.023,25.456,0c1.152-1.152,2.112-2.416,2.88-3.744l29.008-49.216
			C362.978,292.734,359.762,289.518,356.913,291.199z"/>
	</g>
</g>
<g>
</g>
<g>
</g>
<g>
</g>
<g>
</g>
<g>
</g>
<g>
</g>
<g>
</g>
<g>
</g>
<g>
</g>
<g>
</g>
<g>
</g>
<g>
</g>
<g>
</g>
<g>
</g>
<g>
</g>
</svg>
