<?xml version="1.0" encoding="iso-8859-1"?>
<!-- Generator: Adobe Illustrator 19.0.0, SVG Export Plug-In . SVG Version: 6.00 Build 0)  -->
<svg version="1.1" id="Capa_1" xmlns="http://www.w3.org/2000/svg" xmlns:xlink="http://www.w3.org/1999/xlink" x="0px" y="0px"
	 viewBox="0 0 466.254 466.254" style="enable-background:new 0 0 466.254 466.254;" xml:space="preserve">
<g>
	<g>
		<rect x="105.124" y="160.154" width="192" height="32"/>
	</g>
</g>
<g>
	<g>
		<path d="M105.127,224.156v32H237.17c9.003-12.944,20.693-23.829,34.228-32H105.127z"/>
	</g>
</g>
<g>
	<g>
		<rect x="105.124" y="288.154" width="96" height="32"/>
	</g>
</g>
<g>
	<g>
		<path d="M329.127,271.999V368c12.338,0,23.488-4.81,32-12.486v-71.03C352.615,276.809,341.464,271.999,329.127,271.999z"/>
	</g>
</g>
<g>
	<g>
		<path d="M329.127,64H284.67c-5.926-6.583-13.505-11.62-22.251-14.136c-7.368-2.118-13.038-7.788-15.156-15.156
			C241.498,14.664,223.025,0,201.127,0c-21.898,0-40.37,14.664-46.136,34.707c-2.121,7.376-7.805,13.039-15.181,15.164
			c-8.738,2.518-16.342,7.55-22.262,14.129H73.127c-17.673,0-32,14.326-32,32v288c0,17.673,14.327,32,32,32h103.579l31.81-32H73.127
			V96h32.002v32h191.998V96h32v112c11.123,0,21.85,1.683,32,4.717V96C361.127,78.326,346.8,64,329.127,64z M201.332,64
			c-8.837,0-16-7.164-16-16c0-8.837,7.163-16,16-16s16,7.163,16,16C217.332,56.836,210.169,64,201.332,64z"/>
	</g>
</g>
<g>
	<g>
		<path d="M329.127,224c-53.023,0-96,42.976-96,96c0,17.745,4.898,34.308,13.291,48.567l-58.747,59.097
			c-6.239,6.256-6.224,16.384,0.032,22.624l11.328,11.296c6.256,6.239,16.384,6.224,22.624-0.032l58.65-58.997
			c14.318,8.486,30.97,13.446,48.822,13.446c53.025,0,96-42.977,96-96C425.127,266.976,382.151,224,329.127,224z M329.127,384
			c-35.349,0-64-28.651-64-64c0-35.35,28.651-64,64-64c35.35,0,64,28.65,64,64C393.127,355.349,364.476,384,329.127,384z"/>
	</g>
</g>
<g>
</g>
<g>
</g>
<g>
</g>
<g>
</g>
<g>
</g>
<g>
</g>
<g>
</g>
<g>
</g>
<g>
</g>
<g>
</g>
<g>
</g>
<g>
</g>
<g>
</g>
<g>
</g>
<g>
</g>
</svg>
