<svg width="512.001" height="512.001" xmlns="http://www.w3.org/2000/svg">

 <g>
  <title>background</title>
  <rect fill="none" id="canvas_background" height="402" width="582" y="-1" x="-1"/>
 </g>
 <g>
  <title>Layer 1</title>
  <g id="svg_1">
   <g id="svg_2">
    <path stroke="#000" fill="#fff" id="svg_3" d="m512,256.001c0,-10.821 -6.012,-20.551 -15.694,-25.398l-38.122,-19.061l38.122,-19.06c0.001,-0.001 0.004,-0.002 0.004,-0.002c9.68,-4.845 15.692,-14.576 15.692,-25.397c0,-10.819 -6.013,-20.55 -15.694,-25.397l-215.218,-107.606c-15.712,-7.849 -34.47,-7.849 -50.185,0.001l-215.214,107.61c-9.678,4.843 -15.691,14.573 -15.691,25.393c0,10.821 6.012,20.551 15.694,25.398l38.121,19.06l-38.126,19.063c-9.677,4.845 -15.689,14.575 -15.689,25.396s6.012,20.551 15.694,25.397l38.121,19.061l-38.118,19.059c-9.677,4.835 -15.693,14.562 -15.697,25.384c-0.004,10.828 6.008,20.564 15.694,25.412l215.215,107.608c7.856,3.925 16.471,5.886 25.09,5.886c8.619,0 17.238,-1.963 25.095,-5.887l215.215,-107.608c9.682,-4.845 15.695,-14.582 15.691,-25.41c-0.004,-10.822 -6.02,-20.549 -15.694,-25.381l-38.122,-19.061l38.126,-19.063c9.678,-4.846 15.69,-14.576 15.69,-25.397zm-485.775,-84.57c-2.339,-1.171 -2.687,-3.226 -2.687,-4.346s0.35,-3.175 2.683,-4.343l215.208,-107.604c4.563,-2.28 9.568,-3.418 14.573,-3.418c5.003,0 10.007,1.139 14.567,3.417l215.207,107.603c2.337,1.17 2.687,3.225 2.687,4.345s-0.348,3.175 -2.687,4.346l-215.204,107.601c-9.125,4.558 -20.019,4.558 -29.139,0.001l-215.208,-107.602zm459.558,169.144c2.33,1.164 2.679,3.215 2.679,4.336c0.001,1.123 -0.348,3.182 -2.683,4.35l-215.208,107.604c-9.125,4.558 -20.019,4.559 -29.139,0.001l-215.207,-107.604c-2.339,-1.171 -2.688,-3.229 -2.687,-4.352c0,-1.119 0.348,-3.171 2.683,-4.337l53.912,-26.956l150.776,75.387c7.856,3.925 16.471,5.886 25.089,5.886c8.619,0 17.238,-1.963 25.095,-5.887l150.772,-75.386l53.918,26.958zm-0.005,-80.23l-215.207,107.604c-9.125,4.558 -20.019,4.559 -29.139,0.001l-215.207,-107.603c-2.339,-1.17 -2.687,-3.225 -2.687,-4.345c0,-1.122 0.348,-3.175 2.683,-4.344l53.912,-26.956l150.776,75.387c7.855,3.925 16.472,5.886 25.089,5.886c8.617,0 17.237,-1.962 25.094,-5.888l150.774,-75.386l53.908,26.954c2.339,1.171 2.687,3.225 2.687,4.346c0.001,1.12 -0.348,3.175 -2.683,4.344z"/>
   </g>
  </g>
  <g id="svg_4"/>
  <g id="svg_5"/>
  <g id="svg_6"/>
  <g id="svg_7"/>
  <g id="svg_8"/>
  <g id="svg_9"/>
  <g id="svg_10"/>
  <g id="svg_11"/>
  <g id="svg_12"/>
  <g id="svg_13"/>
  <g id="svg_14"/>
  <g id="svg_15"/>
  <g id="svg_16"/>
  <g id="svg_17"/>
  <g id="svg_18"/>
 </g>
</svg>