<svg width="245.287" height="245.287" xmlns="http://www.w3.org/2000/svg">

 <g>
  <title>background</title>
  <rect fill="none" id="canvas_background" height="402" width="582" y="-1" x="-1"/>
 </g>
 <g>
  <title>Layer 1</title>
  <g id="svg_1">
   <path stroke="#000" fill="#fff" id="svg_2" d="m54.027,147.389c-3.866,0 -7,3.134 -7,7l0,12.151c0,3.866 3.134,7 7,7s7,-3.134 7,-7l0,-12.151c0,-3.866 -3.133,-7 -7,-7z"/>
   <path stroke="#000" fill="#fff" id="svg_3" d="m82.028,147.389c-3.866,0 -7,3.134 -7,7l0,12.151c0,3.866 3.134,7 7,7s7,-3.134 7,-7l0,-12.151c0,-3.866 -3.133,-7 -7,-7z"/>
   <path stroke="#000" fill="#fff" id="svg_4" d="m110.03,147.389c-3.866,0 -7,3.134 -7,7l0,12.151c0,3.866 3.134,7 7,7s7,-3.134 7,-7l0,-12.151c0,-3.866 -3.134,-7 -7,-7z"/>
   <path stroke="#000" fill="#fff" id="svg_5" d="m135.257,147.389c-3.866,0 -7,3.134 -7,7l0,12.151c0,3.866 3.134,7 7,7s7,-3.134 7,-7l0,-12.151c0,-3.866 -3.134,-7 -7,-7z"/>
   <path stroke="#000" fill="#fff" id="svg_6" d="m163.259,147.389c-3.866,0 -7,3.134 -7,7l0,12.151c0,3.866 3.134,7 7,7s7,-3.134 7,-7l0,-12.151c0,-3.866 -3.134,-7 -7,-7z"/>
   <path stroke="#000" fill="#fff" id="svg_7" d="m191.26,147.389c-3.866,0 -7,3.134 -7,7l0,12.151c0,3.866 3.134,7 7,7s7,-3.134 7,-7l0,-12.151c0,-3.866 -3.134,-7 -7,-7z"/>
   <path stroke="#000" fill="#fff" id="svg_8" d="m54.027,108.314c-3.866,0 -7,3.134 -7,7l0,12.151c0,3.866 3.134,7 7,7s7,-3.134 7,-7l0,-12.151c0,-3.866 -3.133,-7 -7,-7z"/>
   <path stroke="#000" fill="#fff" id="svg_9" d="m82.028,108.314c-3.866,0 -7,3.134 -7,7l0,12.151c0,3.866 3.134,7 7,7s7,-3.134 7,-7l0,-12.151c0,-3.866 -3.133,-7 -7,-7z"/>
   <path stroke="#000" fill="#fff" id="svg_10" d="m110.03,108.314c-3.866,0 -7,3.134 -7,7l0,12.151c0,3.866 3.134,7 7,7s7,-3.134 7,-7l0,-12.151c0,-3.866 -3.134,-7 -7,-7z"/>
   <path stroke="#000" fill="#fff" id="svg_11" d="m135.257,108.314c-3.866,0 -7,3.134 -7,7l0,12.151c0,3.866 3.134,7 7,7s7,-3.134 7,-7l0,-12.151c0,-3.866 -3.134,-7 -7,-7z"/>
   <path stroke="#000" fill="#fff" id="svg_12" d="m163.259,108.314c-3.866,0 -7,3.134 -7,7l0,12.151c0,3.866 3.134,7 7,7s7,-3.134 7,-7l0,-12.151c0,-3.866 -3.134,-7 -7,-7z"/>
   <path stroke="#000" fill="#fff" id="svg_13" d="m191.26,108.314c-3.866,0 -7,3.134 -7,7l0,12.151c0,3.866 3.134,7 7,7s7,-3.134 7,-7l0,-12.151c0,-3.866 -3.134,-7 -7,-7z"/>
   <path stroke="#000" fill="#fff" id="svg_14" d="m94.642,36.814c-3.866,0 -7,3.134 -7,7l0,12.151c0,3.866 3.134,7 7,7s7,-3.134 7,-7l0,-12.151c0,-3.866 -3.134,-7 -7,-7z"/>
   <path stroke="#000" fill="#fff" id="svg_15" d="m122.644,36.814c-3.866,0 -7,3.134 -7,7l0,12.151c0,3.866 3.134,7 7,7s7,-3.134 7,-7l0,-12.151c0,-3.866 -3.134,-7 -7,-7z"/>
   <path stroke="#000" fill="#fff" id="svg_16" d="m150.646,36.814c-3.866,0 -7,3.134 -7,7l0,12.151c0,3.866 3.134,7 7,7s7,-3.134 7,-7l0,-12.151c0,-3.866 -3.134,-7 -7,-7z"/>
   <path stroke="#000" fill="#fff" id="svg_17" d="m238.287,74.278l-51.836,0l0,-60.169c0,-3.866 -3.134,-7 -7,-7l-113.615,0c-3.866,0 -7,3.134 -7,7l0,60.168l-51.836,0c-3.866,0 -7,3.134 -7,7s3.134,7 7,7l6.581,0l0,142.9c0,3.866 3.134,7 7,7l204.125,0c3.866,0 7,-3.134 7,-7l0,-142.9l6.581,0c3.866,0 7,-3.134 7,-7s-3.134,-6.999 -7,-6.999zm-81.149,149.9l-27.542,0c0.029,-0.26 0.048,-0.524 0.048,-0.792l0,-10.518l27.494,0l0,11.31zm-41.447,0l-27.542,0l0,-11.31l27.494,0l0,10.518c0.001,0.268 0.019,0.531 0.048,0.792zm55.447,0l0,-18.31c0,-3.866 -3.134,-7 -7,-7l-82.989,0c-3.866,0 -7,3.134 -7,7l0,18.31l-46.568,0l0,-135.9l190.125,0l0,135.9l-46.568,0zm-98.302,-203.069l99.615,0l0,53.168l-99.615,0l0,-53.168z"/>
  </g>
 </g>
</svg>