<svg width="512" height="512" xmlns="http://www.w3.org/2000/svg">

 <g>
  <title>background</title>
  <rect fill="none" id="canvas_background" height="402" width="582" y="-1" x="-1"/>
 </g>
 <g>
  <title>Layer 1</title>
  <g id="svg_1">
   <g id="svg_2">
    <path stroke="#000" fill="#fff" id="svg_3" d="m499.904,456.607l-487.808,0c-6.681,0 -12.096,5.415 -12.096,12.096c0,6.679 5.415,12.096 12.096,12.096l487.808,0c6.679,0 12.096,-5.417 12.096,-12.096c0,-6.68 -5.415,-12.096 -12.096,-12.096z"/>
   </g>
  </g>
  <g id="svg_4">
   <g id="svg_5">
    <path stroke="#000" fill="#fff" id="svg_6" d="m468.37,88.305l-84.948,0c-6.679,0 -12.096,5.417 -12.096,12.096l0,82.24l-60.757,0l0,-139.344c0,-6.679 -5.417,-12.096 -12.096,-12.096l-84.95,0c-6.679,0 -12.096,5.417 -12.096,12.096l0,228.882l-60.757,0l0,-102.819c0,-6.681 -5.417,-12.096 -12.096,-12.096l-84.948,0c-6.681,0 -12.096,5.415 -12.096,12.096l0,231.563c0,6.681 5.417,12.096 12.096,12.096l84.948,0l84.948,0l84.95,0l84.949,0l84.948,0c6.681,0 12.096,-5.417 12.096,-12.096l0,-300.522c0.001,-6.679 -5.414,-12.096 -12.095,-12.096zm-351.891,300.522l-60.757,0l0,-207.371l60.757,0l0,207.371zm84.95,0l-60.757,0l0,-92.456l60.757,0l0,92.456zm84.949,-194.09l0,194.09l-60.758,0l0,-333.434l60.758,0l0,139.344zm84.95,194.09l-60.757,0l0,-181.994l60.757,0l0,181.994zm84.948,0l-60.756,0l0,-194.09l0,-82.24l60.757,0l0,276.33l-0.001,0z"/>
   </g>
  </g>
  <g id="svg_7"/>
  <g id="svg_8"/>
  <g id="svg_9"/>
  <g id="svg_10"/>
  <g id="svg_11"/>
  <g id="svg_12"/>
  <g id="svg_13"/>
  <g id="svg_14"/>
  <g id="svg_15"/>
  <g id="svg_16"/>
  <g id="svg_17"/>
  <g id="svg_18"/>
  <g id="svg_19"/>
  <g id="svg_20"/>
  <g id="svg_21"/>
 </g>
</svg>