<svg width="512" height="512" xmlns="http://www.w3.org/2000/svg">

 <g>
  <title>background</title>
  <rect fill="none" id="canvas_background" height="402" width="582" y="-1" x="-1"/>
 </g>
 <g>
  <title>Layer 1</title>
  <g id="svg_1">
   <g id="svg_2">
    <path stroke="#000" fill="#fff" id="svg_3" d="m475.934,108.229l-95.584,0l0,-53.944c0,-5.995 -4.862,-10.857 -10.857,-10.857l-226.986,0c-5.995,0 -10.857,4.862 -10.857,10.857l0,53.945l-95.584,0c-19.887,-0.001 -36.066,16.179 -36.066,36.066l0,172.837c0,19.887 16.179,36.067 36.066,36.067l95.584,0l0,104.515c0,5.995 4.862,10.857 10.857,10.857l226.987,0c5.995,0 10.857,-4.862 10.857,-10.857l0,-104.515l95.584,0c19.886,0 36.066,-16.179 36.066,-36.067l0,-172.837c-0.001,-19.887 -16.181,-36.067 -36.067,-36.067zm-95.585,21.713l25.897,0l0,30.385l-25.897,0l0,-30.385zm-226.986,-64.8l205.273,0l0,95.186l-205.273,0l0,-95.186zm-47.61,64.801l25.897,0l0,30.385l-25.897,0l0,-30.385zm252.884,316.915l-205.274,0l0,-142.979l205.273,0l0,142.979l0.001,0zm131.651,-129.725l-0.001,0c0,7.915 -6.439,14.354 -14.352,14.354l-95.585,0l0,-27.607l19.805,0c5.995,0 10.857,-4.862 10.857,-10.857s-4.862,-10.857 -10.857,-10.857l-30.661,0l-226.987,0l-30.661,0c-5.995,0 -10.857,4.862 -10.857,10.857s4.862,10.857 10.857,10.857l19.805,0l0,27.607l-95.585,0c-7.913,0 -14.352,-6.439 -14.352,-14.354l0,-172.837c0,-7.914 6.439,-14.354 14.352,-14.354l47.974,0l0,41.241c0,5.995 4.861,10.857 10.857,10.857l322.207,0c5.995,0 10.857,-4.862 10.857,-10.857l0,-41.241l47.974,0c7.913,0 14.353,6.439 14.353,14.354l0,172.837z"/>
   </g>
  </g>
  <g id="svg_4">
   <g id="svg_5">
    <circle stroke="#000" fill="#fff" id="svg_6" r="13.602" cy="219.261" cx="68.799"/>
   </g>
  </g>
  <g id="svg_7">
   <g id="svg_8">
    <path stroke="#000" fill="#fff" id="svg_9" d="m252.849,386.456l-50.68,0c-5.995,0 -10.857,4.86 -10.857,10.857c0,5.995 4.861,10.857 10.857,10.857l50.68,0c5.995,0 10.857,-4.862 10.857,-10.857c0,-5.997 -4.862,-10.857 -10.857,-10.857z"/>
   </g>
  </g>
  <g id="svg_10">
   <g id="svg_11">
    <path stroke="#000" fill="#fff" id="svg_12" d="m309.831,331.483l-107.662,0c-5.995,0 -10.857,4.862 -10.857,10.857c0,5.996 4.861,10.857 10.857,10.857l107.661,0c5.995,0 10.857,-4.861 10.857,-10.857c0,-5.995 -4.861,-10.857 -10.856,-10.857z"/>
   </g>
  </g>
  <g id="svg_13"/>
  <g id="svg_14"/>
  <g id="svg_15"/>
  <g id="svg_16"/>
  <g id="svg_17"/>
  <g id="svg_18"/>
  <g id="svg_19"/>
  <g id="svg_20"/>
  <g id="svg_21"/>
  <g id="svg_22"/>
  <g id="svg_23"/>
  <g id="svg_24"/>
  <g id="svg_25"/>
  <g id="svg_26"/>
  <g id="svg_27"/>
 </g>
</svg>